<svg width="17" height="16" viewBox="0 0 17 16" fill="none" xmlns="http://www.w3.org/2000/svg">
<path d="M9.65171 2.29611L10.8249 4.66191C10.9849 4.99124 11.4115 5.30713 11.7715 5.36761L13.8979 5.72383C15.2578 5.95235 15.5778 6.94706 14.5978 7.92833L12.9447 9.59513C12.6647 9.87739 12.5114 10.4218 12.598 10.8117L13.0714 12.875C13.4446 14.5082 12.5847 15.14 11.1516 14.2864L9.15845 13.0968C8.79851 12.8817 8.20525 12.8817 7.83858 13.0968L5.84549 14.2864C4.41898 15.14 3.55241 14.5015 3.92571 12.875L4.39899 10.8117C4.48564 10.4218 4.33233 9.87739 4.05235 9.59513L2.39921 7.92833C1.42598 6.94706 1.73928 5.95235 3.09913 5.72383L5.22556 5.36761C5.57885 5.30713 6.00547 4.99124 6.16545 4.66191L7.33865 2.29611C7.97858 1.0124 9.01845 1.0124 9.65171 2.29611Z" fill="#FAB719"/>
</svg>
