<svg width="17" height="16" viewBox="0 0 17 16" fill="none" xmlns="http://www.w3.org/2000/svg">
<path d="M9.98503 2.29611L11.1582 4.66191C11.3182 4.99124 11.7448 5.30713 12.1048 5.36761L14.2312 5.72383C15.5911 5.95235 15.9111 6.94706 14.9312 7.92833L13.278 9.59513C12.998 9.87739 12.8448 10.4218 12.9314 10.8117L13.4047 12.875C13.778 14.5082 12.918 15.14 11.4849 14.2864L9.49176 13.0968C9.13183 12.8817 8.53856 12.8817 8.17189 13.0968L6.17881 14.2864C4.75229 15.14 3.88573 14.5015 4.25902 12.875L4.7323 10.8117C4.81895 10.4218 4.66564 9.87739 4.38567 9.59513L2.73252 7.92833C1.75929 6.94706 2.07259 5.95235 3.43244 5.72383L5.55887 5.36761C5.91217 5.30713 6.33879 4.99124 6.49877 4.66191L7.67196 2.29611C8.31189 1.0124 9.35176 1.0124 9.98503 2.29611Z" fill="#FAB719"/>
</svg>
