<svg width="17" height="16" viewBox="0 0 17 16" fill="none" xmlns="http://www.w3.org/2000/svg">
<path d="M9.3184 2.29611L10.4916 4.66191C10.6516 4.99124 11.0782 5.30713 11.4382 5.36761L13.5646 5.72383C14.9245 5.95235 15.2445 6.94706 14.2645 7.92833L12.6114 9.59513C12.3314 9.87739 12.1781 10.4218 12.2647 10.8117L12.7381 12.875C13.1113 14.5082 12.2514 15.14 10.8183 14.2864L8.82513 13.0968C8.4652 12.8817 7.87193 12.8817 7.50527 13.0968L5.51218 14.2864C4.08567 15.14 3.2191 14.5015 3.59239 12.875L4.06567 10.8117C4.15233 10.4218 3.99901 9.87739 3.71904 9.59513L2.06589 7.92833C1.09267 6.94706 1.40597 5.95235 2.76581 5.72383L4.89225 5.36761C5.24554 5.30713 5.67216 4.99124 5.83214 4.66191L7.00533 2.29611C7.64527 1.0124 8.68513 1.0124 9.3184 2.29611Z" fill="#FAB719"/>
</svg>
