<svg width="20" height="20" viewBox="0 0 20 20" fill="none" xmlns="http://www.w3.org/2000/svg">
<path d="M2.08301 10C2.08301 6.26809 2.08301 4.40212 3.24237 3.24274C4.40175 2.08337 6.26772 2.08337 9.99967 2.08337C13.7316 2.08337 15.5976 2.08337 16.757 3.24274C17.9163 4.40212 17.9163 6.26809 17.9163 10C17.9163 13.732 17.9163 15.598 16.757 16.7574C15.5976 17.9167 13.7316 17.9167 9.99967 17.9167C6.26772 17.9167 4.40175 17.9167 3.24237 16.7574C2.08301 15.598 2.08301 13.732 2.08301 10Z" stroke="white" stroke-width="1.25" stroke-linejoin="round"/>
<path d="M13.75 10C13.75 12.0711 12.0711 13.75 10 13.75C7.92893 13.75 6.25 12.0711 6.25 10C6.25 7.92893 7.92893 6.25 10 6.25C12.0711 6.25 13.75 7.92893 13.75 10Z" stroke="white" stroke-width="1.25"/>
<path d="M14.5895 5.41663H14.582" stroke="white" stroke-width="1.66667" stroke-linecap="round" stroke-linejoin="round"/>
</svg>
