<svg width="121" height="120" viewBox="0 0 121 120" fill="none" xmlns="http://www.w3.org/2000/svg">
<path d="M75.476 93.624H43.436C40.724 93.624 38.54 91.44 38.54 88.728V30.888C38.54 28.176 40.724 25.992 43.436 25.992H75.476C78.188 25.992 80.372 28.176 80.372 30.888V88.752C80.348 91.44 78.164 93.624 75.476 93.624ZM43.436 26.88C41.228 26.88 39.452 28.68 39.452 30.864V88.728C39.452 90.936 41.252 92.712 43.436 92.712H75.476C77.684 92.712 79.46 90.912 79.46 88.728V30.888C79.46 28.68 77.66 26.88 75.476 26.88H43.436Z" fill="#093F68"/>
<path d="M79.916 83.544H38.996C38.756 83.544 38.54 83.352 38.54 83.088V31.992C38.54 31.752 38.732 31.536 38.996 31.536H79.916C80.156 31.536 80.372 31.728 80.372 31.992V83.088C80.348 83.352 80.156 83.544 79.916 83.544ZM39.428 82.656H79.46V32.448H39.428V82.656Z" fill="#093F68"/>
<path d="M75.212 73.2H59.708C58.604 73.2 57.716 72.312 57.716 71.208V68.712C57.716 67.608 58.604 66.72 59.708 66.72H75.212C76.316 66.72 77.204 67.608 77.204 68.712V71.184C77.228 72.312 76.34 73.2 75.212 73.2ZM59.708 67.608C59.108 67.608 58.604 68.112 58.604 68.712V71.184C58.604 71.784 59.108 72.288 59.708 72.288H75.212C75.812 72.288 76.316 71.784 76.316 71.184V68.688C76.316 68.088 75.812 67.584 75.212 67.584L59.708 67.608Z" fill="#DFEAEF"/>
<path d="M75.02 43.056H59.924C58.7 43.056 57.716 42.072 57.716 40.848V37.2C57.716 35.976 58.7 34.992 59.924 34.992H75.02C76.244 34.992 77.228 35.976 77.228 37.2V40.848C77.228 42.072 76.244 43.056 75.02 43.056ZM59.924 35.904C59.204 35.904 58.628 36.48 58.628 37.2V40.848C58.628 41.568 59.204 42.144 59.924 42.144H75.02C75.74 42.144 76.34 41.568 76.34 40.848V37.2C76.34 36.48 75.764 35.904 75.02 35.904H59.924Z" fill="#DFEAEF"/>
<path d="M58.076 64.776H42.476C41.396 64.776 40.532 63.888 40.532 62.832V60.576C40.532 59.496 41.396 58.632 42.476 58.608H58.076C59.156 58.608 60.02 59.496 60.02 60.576V62.832C60.02 63.912 59.156 64.776 58.076 64.776ZM42.476 59.496C41.9 59.496 41.42 59.976 41.42 60.552V62.808C41.42 63.384 41.9 63.864 42.476 63.864H58.076C58.652 63.864 59.132 63.384 59.132 62.808V60.552C59.132 59.976 58.652 59.496 58.076 59.496H42.476Z" fill="#DFEAEF"/>
<path d="M57.284 56.304H43.244C41.732 56.304 40.508 55.08 40.508 53.568V46.032C40.508 44.52 41.732 43.296 43.244 43.296H57.284C58.796 43.296 60.02 44.52 60.02 46.032V53.568C60.02 55.08 58.796 56.304 57.284 56.304ZM43.244 44.208C42.236 44.208 41.42 45.024 41.42 46.032V53.568C41.42 54.576 42.236 55.392 43.244 55.392H57.284C58.292 55.392 59.108 54.576 59.108 53.568V46.032C59.108 45.024 58.292 44.208 57.284 44.208H43.244Z" fill="#DFEAEF"/>
<path d="M63.74 29.76H57.164C56.924 29.76 56.708 29.568 56.708 29.304C56.708 29.064 56.9 28.848 57.164 28.848H63.74C63.98 28.848 64.196 29.04 64.196 29.304C64.196 29.568 64.004 29.76 63.74 29.76Z" fill="#093F68"/>
<path d="M55.148 29.76C54.908 29.76 54.716 29.568 54.692 29.304C54.692 29.28 54.692 29.256 54.692 29.208C54.692 29.184 54.716 29.16 54.716 29.112L54.764 29.04L54.812 28.968C54.98 28.8 55.268 28.8 55.436 28.968L55.484 29.04L55.532 29.112C55.532 29.136 55.556 29.16 55.556 29.208C55.556 29.232 55.556 29.256 55.556 29.304C55.556 29.424 55.508 29.544 55.412 29.616C55.364 29.664 55.316 29.688 55.268 29.712C55.244 29.736 55.196 29.76 55.148 29.76Z" fill="#093F68"/>
<path d="M59.444 90.072C60.6104 90.072 61.556 89.1264 61.556 87.96C61.556 86.7936 60.6104 85.848 59.444 85.848C58.2775 85.848 57.332 86.7936 57.332 87.96C57.332 89.1264 58.2775 90.072 59.444 90.072Z" fill="#093F68"/>
<path d="M74.996 80.232H43.892C42.668 80.232 41.684 79.248 41.684 78.024C41.684 76.8 42.668 75.816 43.892 75.816H74.996C76.22 75.816 77.204 76.8 77.204 78.024C77.204 79.248 76.22 80.232 74.996 80.232ZM43.892 76.704C43.172 76.752 42.596 77.376 42.644 78.096C42.692 78.768 43.22 79.296 43.892 79.344H74.996C75.716 79.392 76.34 78.84 76.388 78.096C76.436 77.352 75.884 76.752 75.14 76.704C75.092 76.704 75.044 76.704 74.972 76.704H43.892Z" fill="#DFEAEF"/>
<path d="M50.108 60.384C49.94 60.384 49.796 60.288 49.724 60.168L46.58 54.72H31.484C29.948 54.72 28.7 53.472 28.7 51.936V37.824C28.7 36.288 29.948 35.04 31.484 35.04H57.092C58.628 35.04 59.876 36.288 59.876 37.824V51.936C59.876 53.472 58.628 54.72 57.092 54.72H50.54V59.952C50.54 60.144 50.396 60.336 50.204 60.384C50.204 60.384 50.156 60.384 50.108 60.384ZM31.508 35.904C30.476 35.904 29.612 36.744 29.612 37.8V51.936C29.612 52.968 30.452 53.832 31.508 53.832H46.868C47.036 53.832 47.18 53.928 47.252 54.048L49.676 58.272V54.288C49.676 54.048 49.868 53.832 50.132 53.832H57.116C58.148 53.832 59.012 52.992 59.012 51.936V37.8C59.012 36.768 58.172 35.904 57.116 35.904H31.508Z" fill="#093F68"/>
<path d="M53.66 40.944H34.94C34.7 40.944 34.484 40.752 34.484 40.488C34.484 40.248 34.676 40.032 34.94 40.032H53.66C53.9 40.032 54.116 40.224 54.116 40.488C54.116 40.752 53.924 40.944 53.66 40.944Z" fill="#093F68"/>
<path d="M53.66 44.568H34.94C34.7 44.568 34.484 44.376 34.484 44.112C34.484 43.872 34.676 43.656 34.94 43.656H53.66C53.9 43.656 54.116 43.848 54.116 44.112C54.116 44.376 53.924 44.568 53.66 44.568Z" fill="#093F68"/>
<path d="M48.02 48.216H34.94C34.7 48.192 34.508 47.976 34.532 47.736C34.556 47.52 34.724 47.328 34.94 47.328H48.02C48.26 47.352 48.452 47.568 48.428 47.808C48.428 48.024 48.236 48.192 48.02 48.216Z" fill="#093F68"/>
<path d="M72.932 70.56C72.884 70.56 72.86 70.56 72.812 70.536C72.62 70.488 72.476 70.296 72.476 70.104V65.424H66.62C65.204 65.424 64.076 64.272 64.052 62.88V50.136C64.052 48.72 65.204 47.568 66.62 47.568H89.732C91.148 47.568 92.3 48.72 92.3 50.136V62.88C92.3 64.296 91.148 65.448 89.732 65.448H76.148L73.34 70.344C73.244 70.488 73.1 70.56 72.932 70.56ZM66.62 48.48C65.708 48.48 64.964 49.224 64.964 50.136V62.88C64.964 63.792 65.708 64.536 66.62 64.536H72.932C73.172 64.536 73.388 64.728 73.388 64.992V68.424L75.5 64.752C75.572 64.608 75.74 64.536 75.884 64.536H89.732C90.644 64.536 91.388 63.792 91.388 62.88V50.136C91.388 49.224 90.644 48.48 89.732 48.48H66.62Z" fill="#093F68"/>
<path d="M87.524 52.728H68.804C68.564 52.728 68.348 52.536 68.348 52.272C68.348 52.032 68.54 51.816 68.804 51.816H87.524C87.764 51.816 87.98 52.008 87.98 52.272C87.98 52.512 87.788 52.728 87.524 52.728Z" fill="#093F68"/>
<path d="M87.524 56.352H68.804C68.564 56.352 68.348 56.16 68.348 55.896C68.348 55.656 68.54 55.44 68.804 55.44H87.524C87.764 55.44 87.98 55.632 87.98 55.896C87.98 56.16 87.788 56.352 87.524 56.352Z" fill="#093F68"/>
<path d="M81.884 59.976H68.828C68.588 59.976 68.372 59.784 68.372 59.52C68.372 59.28 68.564 59.064 68.828 59.064H81.884C82.124 59.064 82.34 59.256 82.34 59.52C82.316 59.784 82.124 59.976 81.884 59.976Z" fill="#093F68"/>
</svg>
