<svg width="121" height="120" viewBox="0 0 121 120" fill="none" xmlns="http://www.w3.org/2000/svg">
<g clip-path="url(#clip0_1_177)">
<path opacity="0.24" d="M120.428 59.76C119.643 70.0248 112.321 79.4064 113.022 89.5272C113.05 89.952 113.091 90.3768 113.149 90.7872C113.281 91.7904 113.497 92.7816 113.71 93.7632C113.998 95.1 114.274 96.4368 114.318 97.8024C114.368 99.4248 113.998 101.165 113.108 102.48C112.695 103.094 112.146 103.603 111.502 103.968C111.354 104.05 111.2 104.124 111.044 104.191C110.168 104.527 109.246 104.736 108.31 104.808C94.7456 106.236 81.2552 101.381 67.6088 101.542C56.1272 101.678 44.8592 105.37 33.4976 106.67C31.796 106.87 30.0968 107.016 28.3952 107.078C26.8208 107.153 25.2464 107.153 23.6696 107.078C23.0744 107.047 22.4888 107.006 21.9056 106.958C21.116 106.894 20.3312 106.798 19.544 106.675C15.1304 106.037 10.8056 104.59 7.34001 101.82C0.440006 96.3048 -1.73919 86.0784 1.10001 77.6976C2.94561 72.2472 6.65601 67.3032 6.94161 61.5672C7.26321 55.1544 3.25041 49.3848 1.92801 43.0992C1.35681 40.4352 1.28961 37.6872 1.36401 34.9704C1.49841 30.6672 2.21361 25.98 5.35281 23.0424C6.20481 22.2744 7.15281 21.6192 8.17041 21.0912C8.73201 20.7864 9.29361 20.5056 9.87201 20.2248C12.1016 19.1232 14.3576 18.0408 16.6136 16.9968C24.692 13.2 32.8856 9.66716 41.1896 6.40316C46.1504 4.45436 51.2216 2.56796 56.5328 2.06396C66.2696 1.14716 75.8048 4.91996 84.6344 9.14876C89.3456 11.412 93.9992 13.8264 98.84 15.8448C100.083 16.3584 101.336 16.848 102.606 17.2896C103.705 17.6856 104.821 18.0528 105.944 18.372C107.379 18.7968 109.316 18.9216 110.835 19.4736L111.147 19.5936C111.56 19.7592 111.942 19.992 112.275 20.2848L112.34 20.3424C115.33 23.1648 116.47 30.8856 117.342 34.7808C118.45 39.7224 119.13 44.7552 119.797 49.7736C120.234 53.088 120.68 56.4336 120.428 59.7648V59.76Z" fill="#1263A7"/>
<path d="M73.0496 32.2152L65.8808 33.516L68.8328 42.2712C68.8328 42.2712 73.7336 41.0304 74.2904 44.4096C74.7968 47.4936 70.2608 46.4856 70.2608 46.4856L72.9968 55.2336L80.96 53.424C80.96 53.424 82.0904 57.0936 83.8784 57.7008C85.6664 58.308 87.6344 57.108 87.1856 54.8448C86.7368 52.5816 85.7888 52.4448 85.7888 52.4448L96.1208 50.0904L89.1224 30.9408L73.0496 32.2176V32.2152Z" fill="#1263A7"/>
<path d="M87.1856 54.8448C87.6272 57.1008 85.6616 58.3032 83.8712 57.6936C82.0808 57.084 80.9504 53.424 80.9504 53.424L72.9872 55.2288L70.2512 46.4808C70.2512 46.4808 74.7872 47.4912 74.2808 44.4096C73.7288 41.0232 68.8232 42.2664 68.8232 42.2664L65.8784 33.5112L73.0448 32.2104L81.4448 31.548L89.1176 30.9384L92.6408 40.5696L92.9528 41.4192L94.2296 44.9112L96.116 50.0952L85.7864 52.4472C85.7864 52.4472 86.7608 52.5912 87.1856 54.8424V54.8448Z" fill="url(#paint0_linear_1_177)"/>
<path d="M112.474 20.1144C112.405 20.1696 112.338 20.2272 112.261 20.2824C109.614 22.3944 106.962 24.504 104.31 26.6136C103.448 27.2688 102.632 27.984 101.869 28.7496C97.736 33.1008 97.4552 39.9024 94.2272 44.9208L92.9504 41.4288C93.0224 41.1816 92.9744 40.9152 92.8232 40.7064C92.7704 40.6488 92.708 40.6032 92.6384 40.5696C92.3504 40.416 91.94 40.4976 91.604 40.6104C88.2824 41.664 85.1144 43.152 82.184 45.0336C81.476 45.4896 80.5856 45.9888 79.8464 45.5856C79.7264 45.5376 79.6304 45.444 79.5752 45.3288C79.4552 45.0576 79.6952 44.76 79.9208 44.5584C81.512 43.1064 83.2208 41.7888 85.0352 40.6248C83.0432 41.2872 81.1352 42.18 79.352 43.2888C78.4616 43.8528 77.4248 44.4936 76.4216 44.1792C76.256 44.1456 76.112 44.0472 76.0208 43.908C75.86 43.6032 76.124 43.2576 76.3808 43.0248C78.4592 41.076 80.6072 39.1968 82.82 37.3896C81.7112 37.5432 80.7416 38.1672 79.8104 38.7768L76.2632 41.1144C75.9176 41.34 75.5648 41.5656 75.1544 41.58C74.744 41.5944 74.3048 41.292 74.3264 40.8912C74.3504 40.7064 74.4224 40.5312 74.54 40.3848C76.1048 38.016 79.0592 36.8928 80.7848 34.644L75.9776 37.8336C75.7448 37.9872 75.4712 38.1552 75.2 38.0904C74.8304 38.0088 74.6528 37.5528 74.744 37.1856C74.8352 36.8184 75.1112 36.5256 75.3824 36.2544C77.2016 34.428 79.328 32.9976 81.4544 31.5456C82.0184 31.1688 82.5704 30.7824 83.1224 30.3888C85.604 28.6368 88.3472 27.2952 91.2536 26.4096C91.7456 26.2656 92.2424 26.1288 92.7224 25.944C94.184 25.392 95.4344 24.4032 96.608 23.376C98.7512 21.4896 100.693 19.3968 102.603 17.2848C103.702 17.6784 104.818 18.048 105.942 18.3696C107.379 18.7944 109.311 18.9168 110.833 19.4688L111.145 19.5888L112.482 20.1096L112.474 20.1144Z" fill="#FFAA71"/>
<path d="M35.4056 86.7864L42.38 88.8912L44.564 87.6864L43.736 79.752C43.736 79.752 37.5176 78.2064 39.8504 75.3624C42.1856 72.5208 44.384 75.348 44.384 75.348L46.5752 74.1432L45.9368 66.3144L37.4864 64.116C37.4864 64.116 40.676 59.496 38.8424 57.564C37.5392 56.196 33.7088 57.9888 33.1016 60.1992C32.8448 61.0968 32.7512 62.0328 32.8256 62.964L25.172 59.1624L22.988 60.3768L18.428 82.1208L35.4032 86.7888L35.4056 86.7864Z" fill="url(#paint1_linear_1_177)"/>
<path d="M37.5896 85.5792L44.564 87.684L45.9224 78.5424C45.9224 78.5424 39.704 76.9944 42.0368 74.1528C44.3696 71.3112 46.5704 74.1384 46.5704 74.1384L48.1136 65.1048L39.6752 62.9064C39.6752 62.9064 41.3864 59.8896 39.5456 57.9576C38.2448 56.5896 35.9 56.7696 35.2928 58.9896C35.036 59.8872 34.9424 60.8232 35.0192 61.7544L25.1744 59.1576L20.6168 80.9136L37.592 85.5816L37.5896 85.5792Z" fill="url(#paint2_linear_1_177)"/>
<path d="M40.7816 76.4304C40.1432 79.6344 38.72 82.5552 37.5296 85.596C36.4208 88.4208 34.8656 91.0488 32.9216 93.3816C32.5928 93.7752 32.2472 94.1592 31.9496 94.5768C31.0352 95.8536 30.524 97.3536 30.1136 98.8536C29.6072 100.716 28.9496 104.045 28.412 107.081C26.8376 107.153 25.2632 107.153 23.6864 107.081C23.0912 107.05 22.5056 107.009 21.92 106.961C21.1328 106.894 20.3456 106.8 19.5608 106.678C20.4464 104.398 21.3416 102.103 21.8984 100.387C22.2584 99.3672 22.5488 98.3256 22.7648 97.2648C23.6504 92.3736 21.4016 87.5424 20.5712 82.6392C20.5712 82.6392 22.352 83.3496 23.5112 83.064C23.936 82.9608 24.5552 82.044 24.8264 81.7056C27.0296 79.0032 28.8608 76.0224 30.2768 72.8376C30.6128 72.0672 31.088 71.1696 31.9208 71.088C32.048 71.0712 32.18 71.0952 32.2904 71.16C32.5472 71.3208 32.504 71.6976 32.4272 71.9952C31.8968 74.0832 31.1912 76.1208 30.3152 78.0864C31.6208 76.4424 32.7248 74.6496 33.6056 72.7464C34.0472 71.784 34.5536 70.6752 35.564 70.3872C35.7224 70.3272 35.9 70.332 36.056 70.404C36.3608 70.5624 36.32 71.0064 36.2384 71.3328C35.564 74.1024 34.8008 76.8504 33.9536 79.5768C34.8032 78.8472 35.2616 77.7864 35.7008 76.7688C36.2672 75.468 36.8288 74.1672 37.388 72.8664C37.5488 72.4896 37.7264 72.1056 38.0528 71.8704C38.3792 71.6352 38.9192 71.6472 39.116 71.9904C39.2 72.156 39.2384 72.3432 39.2264 72.528C39.212 75.3696 37.3664 77.9208 37.1552 80.7552C37.9088 78.9816 38.6648 77.2152 39.4184 75.4392C39.5216 75.1824 39.6584 74.892 39.9248 74.8008C40.2776 74.664 40.6784 74.9544 40.808 75.3072C40.9016 75.6768 40.892 76.0632 40.7792 76.428L40.7816 76.4304Z" fill="#F1B475"/>
<path d="M86.9288 73.6344L88.4936 66.5184L88.1552 64.9368L79.2776 65.8632C79.2776 65.8632 78.2144 72.1848 75.1976 70.0728C72.1808 67.9608 74.8352 65.5536 74.8352 65.5536L74.4968 63.972L65.7104 64.7088L64.1648 73.2888C64.1648 73.2888 60.4016 70.8336 58.616 72.816C57.3536 74.22 58.3328 77.5224 60.5912 77.952C61.5056 78.1416 62.4488 78.1656 63.3728 78.0192L61.2008 86.4504L61.5392 88.032L83.5736 90.912L86.9312 73.6296L86.9288 73.6344Z" fill="url(#paint3_linear_1_177)"/>
<path d="M86.5904 72.0504L88.1552 64.9344L78.9392 64.2792C78.9392 64.2792 77.876 70.6008 74.8616 68.4888C71.8472 66.3768 74.4992 63.9696 74.4992 63.9696L65.3744 63.12L63.8264 71.7C63.8264 71.7 60.6872 70.224 58.9016 72.2088C57.6392 73.6128 57.9944 75.936 60.2528 76.3656C61.1672 76.5552 62.108 76.5768 63.0296 76.4304L61.1936 86.4456L83.2304 89.3304L86.588 72.0528L86.5904 72.0504Z" fill="#1263A7"/>
<path d="M79.1936 69.1824C78.6848 68.9592 77.9168 68.7384 77.7056 69.2496C77.5976 69.504 77.7224 69.792 77.8448 70.0392L79.2056 72.7728L75.92 71.5416C75.7088 71.4336 75.4664 71.4048 75.236 71.4576C74.708 71.6544 74.8832 72.4368 75.152 72.9312L77.156 76.6248C76.268 76.7544 75.416 75.6288 74.6048 76.0344C73.9664 76.3536 74.0744 77.2872 74.3408 77.9472C75.5216 80.784 77.9384 82.9104 79.6592 85.4616C80.2544 86.3424 80.7824 87.444 80.384 88.4256C80.2088 88.8504 79.88 89.3856 80.1968 89.7264C80.348 89.8536 80.5352 89.928 80.7296 89.94C82.4144 90.228 84.1328 90.2808 85.832 90.096C86.0168 84.2976 86.3 78.504 86.6816 72.7176C86.7152 72.204 86.744 71.6544 86.4848 71.2104C86.2448 70.86 85.9208 70.572 85.544 70.3752C84.7304 69.8616 83.9288 69.312 83.0936 68.8272C82.1792 68.2968 81.9464 68.5392 81.9872 69.5616C81.0944 69.78 80.0168 69.5496 79.1912 69.1848L79.1936 69.1824Z" fill="url(#paint4_linear_1_177)"/>
<path d="M114.32 97.8192C114.37 99.4416 114.001 101.182 113.11 102.497C112.698 103.111 112.148 103.62 111.505 103.985C111.356 104.066 111.202 104.141 111.046 104.208C108.114 101.87 104.998 99.3888 103.131 97.968C102.135 97.1736 101.084 96.4512 99.9872 95.8008C93.3968 92.1096 84.8912 94.2744 77.9528 91.2816C77.6648 91.1616 77.3432 90.9768 77.2952 90.672C77.2472 90.3672 77.4536 90.12 77.6888 89.9352C78.9656 88.8936 80.828 89.1984 82.4792 89.2968C82.904 89.328 83.4272 89.2968 83.6768 88.944C83.9744 88.5192 83.708 87.9576 83.4368 87.5232C81.2696 84.024 78.644 80.8296 75.6368 78.0216C74.9048 77.34 74.0888 76.4736 74.3216 75.4992C74.3456 75.3504 74.42 75.2136 74.5352 75.1152C74.8184 74.9016 75.2168 75.0912 75.5144 75.2856C77.6384 76.6824 79.6424 78.2544 81.5048 79.9872C80.168 77.8992 78.5888 75.9792 76.7984 74.2656C75.8936 73.3992 74.8568 72.4104 74.9192 71.16C74.9144 70.9584 74.9912 70.7664 75.1328 70.6224C75.428 70.3416 75.9032 70.56 76.2464 70.776C79.0688 72.588 81.8408 74.4936 84.56 76.4904C84.0632 75.276 83.072 74.3448 82.0904 73.4568C80.8544 72.3336 79.628 71.2008 78.3896 70.0704C78.0368 69.7464 77.6696 69.4032 77.54 68.9472C77.4104 68.4912 77.612 67.8936 78.0776 67.788C78.296 67.7664 78.5144 67.8 78.716 67.8864C81.8744 68.988 84.02 72.036 87.092 73.3584C85.4072 71.8344 83.7248 70.308 82.0448 68.784C81.7952 68.5704 81.5312 68.304 81.5144 67.968C81.4976 67.5168 81.9704 67.1808 82.4192 67.1736C82.868 67.164 83.2808 67.4064 83.6648 67.6296C86.9864 69.5736 89.6984 72.2856 92.6288 74.7792C95.3552 77.1096 97.6904 79.8648 99.5456 82.9344C99.8576 83.448 100.155 83.9784 100.503 84.4752C101.566 85.9824 103.054 87.1296 104.574 88.1736C106.837 89.7192 110.578 91.9896 113.715 93.78C114.003 95.1192 114.282 96.456 114.325 97.8216L114.32 97.8192Z" fill="#FFB4A3"/>
<path d="M27.836 41.9184L24.3848 45.7008L23.9312 48.0744L32.3672 51.8424C32.3672 51.8424 35.5304 46.2672 37.64 49.2792C38.7032 50.7864 37.664 51.7536 36.8864 51.276L36.4328 53.6496L44.7248 57.5664L48.7928 50.4864C48.7928 50.4864 52.2584 52.1424 53.9144 51.24C54.7856 50.7648 55.2896 49.8288 55.4888 49.092C55.4888 49.092 55.8992 46.9944 55.7984 46.7184C55.616 46.224 54.6632 47.2392 54.0656 46.8696C52.1072 45.6648 51.3536 46.2672 51.3536 46.2672L56.624 37.0776L57.0776 34.704L37.796 29.2416L27.8336 41.9184H27.836Z" fill="url(#paint5_linear_1_177)"/>
<path d="M28.292 39.5472L24.3848 45.7032L32.8184 49.4712C32.8184 49.4712 35.2304 45.0264 38.0912 46.92C40.7024 48.6384 36.8888 51.2904 36.8888 51.2904L45.1808 55.2072L49.2488 48.1272C49.2488 48.1272 52.712 49.7832 54.3704 48.8808C56.0288 47.9784 56.48 45.7176 54.5192 44.5104C52.5584 43.3032 51.8072 43.908 51.8072 43.908L57.08 34.7184L38.2424 26.868L28.292 39.5496V39.5472Z" fill="url(#paint6_linear_1_177)"/>
<path d="M46.3352 42.0864C46.3496 42.4944 45.9104 42.792 45.5072 42.7776C45.1064 42.7248 44.7248 42.564 44.408 42.312C43.22 41.5344 42.032 40.7544 40.8536 39.9744C39.9224 39.3648 38.9408 38.7384 37.8512 38.5872C40.0496 40.3944 42.2024 42.2808 44.2784 44.2224C44.5352 44.4552 44.8088 44.8008 44.6408 45.1056C44.5496 45.2448 44.408 45.3456 44.2472 45.3864C43.2368 45.7008 42.2024 45.0504 41.312 44.496C39.5312 43.3824 37.6232 42.4848 35.6288 41.8224C37.4408 42.9864 39.152 44.304 40.7432 45.756C40.9568 45.9552 41.2088 46.2528 41.0888 46.5264C41.0336 46.6416 40.94 46.7352 40.8248 46.7928C40.076 47.1864 39.1952 46.6896 38.4872 46.2408C35.5568 44.352 32.3888 42.864 29.0672 41.8104C28.8824 41.7528 28.6016 41.6256 28.3448 41.544C28.184 41.4792 28.0064 41.4696 27.8384 41.5128L25.4456 44.3472L24.5792 42.3624C23.0144 38.4144 22.1288 34.0704 19.5464 30.8064C19.3112 30.5112 19.064 30.2256 18.8 29.9568C18.0368 29.1936 17.2208 28.4832 16.3592 27.8304C13.9352 25.896 10.7648 23.2056 8.1824 21.1032C8.744 20.7984 9.3056 20.5176 9.884 20.2368C12.1088 19.128 14.3648 18.048 16.6208 17.004C18.788 19.38 21.9248 22.7088 24.0632 24.5952C25.2344 25.6248 26.4872 26.6112 27.9488 27.1632C28.4288 27.348 28.928 27.4848 29.4176 27.6288C32.3216 28.5144 35.0648 29.8584 37.5464 31.6104C40.2128 33.4968 42.9968 35.1576 45.2912 37.4856C45.5864 37.728 45.8072 38.0472 45.9296 38.4072C46.028 38.7744 45.8504 39.24 45.4736 39.3216C45.2024 39.3792 44.9264 39.2088 44.696 39.0576L39.8888 35.868C41.612 38.124 44.5664 39.24 46.1336 41.6088C46.2464 41.748 46.3184 41.9136 46.3448 42.0912L46.3352 42.0864Z" fill="#C14834"/>
<path d="M28.4864 41.4048L28.3328 41.5488L25.436 44.352L24.5696 42.3672C23.0048 38.4192 22.1192 34.0752 19.5368 30.8112C19.64 30.8664 19.9616 31.0512 21.0248 31.644C22.5752 32.5104 25.3184 38.58 26.144 39.936C26.6648 40.7496 27.524 41.2896 28.484 41.4024L28.4864 41.4048Z" fill="url(#paint7_linear_1_177)"/>
</g>
<defs>
<linearGradient id="paint0_linear_1_177" x1="64.7024" y1="62.6712" x2="150.121" y2="-46.7016" gradientUnits="userSpaceOnUse">
<stop stop-color="#231F20" stop-opacity="0"/>
<stop offset="1" stop-color="#231F20"/>
</linearGradient>
<linearGradient id="paint1_linear_1_177" x1="41.2976" y1="51.1824" x2="23.5568" y2="105.077" gradientUnits="userSpaceOnUse">
<stop stop-color="#231F20" stop-opacity="0"/>
<stop offset="1" stop-color="#231F20"/>
</linearGradient>
<linearGradient id="paint2_linear_1_177" x1="35.7368" y1="64.98" x2="13.7432" y2="199.958" gradientUnits="userSpaceOnUse">
<stop stop-color="#231F20" stop-opacity="0"/>
<stop offset="1" stop-color="#231F20"/>
</linearGradient>
<linearGradient id="paint3_linear_1_177" x1="70.3712" y1="58.5168" x2="82.1216" y2="107.479" gradientUnits="userSpaceOnUse">
<stop stop-color="#231F20" stop-opacity="0"/>
<stop offset="1" stop-color="#231F20"/>
</linearGradient>
<linearGradient id="paint4_linear_1_177" x1="70.9112" y1="72.4152" x2="116.331" y2="101.414" gradientUnits="userSpaceOnUse">
<stop stop-color="#231F20" stop-opacity="0"/>
<stop offset="1" stop-color="#231F20"/>
</linearGradient>
<linearGradient id="paint5_linear_1_177" x1="43.5752" y1="30.4872" x2="38.0576" y2="56.1312" gradientUnits="userSpaceOnUse">
<stop stop-color="#231F20" stop-opacity="0"/>
<stop offset="1" stop-color="#231F20"/>
</linearGradient>
<linearGradient id="paint6_linear_1_177" x1="34.8944" y1="30.9504" x2="55.9832" y2="64.3968" gradientUnits="userSpaceOnUse">
<stop stop-color="white" stop-opacity="0"/>
<stop offset="0.95" stop-color="white"/>
</linearGradient>
<linearGradient id="paint7_linear_1_177" x1="26.4224" y1="36.4008" x2="9.8696" y2="41.3712" gradientUnits="userSpaceOnUse">
<stop stop-color="#231F20" stop-opacity="0"/>
<stop offset="1" stop-color="#231F20"/>
</linearGradient>
<clipPath id="clip0_1_177">
<rect width="120" height="120" fill="white" transform="translate(0.5)"/>
</clipPath>
</defs>
</svg>
