<svg width="120" height="120" viewBox="0 0 120 120" fill="none" xmlns="http://www.w3.org/2000/svg">
<g opacity="0.03">
<path d="M62.9376 109.5C92.9717 109.5 117.319 106.863 117.319 103.61C117.319 100.358 92.9717 97.7208 62.9376 97.7208C32.9035 97.7208 8.556 100.358 8.556 103.61C8.556 106.863 32.9035 109.5 62.9376 109.5Z" fill="#333333"/>
</g>
<path opacity="0.3" d="M58.512 100.322C82.3932 100.322 101.753 80.9629 101.753 57.0816C101.753 33.2004 82.3932 13.8408 58.512 13.8408C34.6308 13.8408 15.2712 33.2004 15.2712 57.0816C15.2712 80.9629 34.6308 100.322 58.512 100.322Z" fill="#E6E6E6"/>
<path d="M59.8752 64.0056H39.3168V70.0776H59.8752V64.0056Z" fill="#E6E6E6"/>
<path d="M70.5576 72.7704H15.2712V101.623H70.5576V72.7704Z" fill="#E6E6E6"/>
<path d="M73.6416 69.5976H12.1872V72.7704H73.6416V69.5976Z" fill="#A5A5A5"/>
<path d="M80.568 10.5H58.4712V38.3856H80.568V10.5Z" fill="#A5A5A5"/>
<path d="M79.344 12.0456H59.6976V36.84H79.344V12.0456Z" fill="#E6E6E6"/>
<g opacity="0.08">
<path d="M67.6488 16.4736L66.7104 17.112C66.7104 17.112 68.568 17.7312 68.3904 21.0912C68.2128 24.4512 67.9776 26.028 64.7664 27.0696C61.7784 28.0392 61.3896 28.7808 61.7424 32.0544L62.7432 31.5576C62.7432 31.5576 61.8456 28.8744 63.7896 28.5216C63.7896 28.5216 64.0512 30.3312 66.9888 31.7784C69.2952 32.9136 72.0408 32.0568 74.568 28.4832C77.0664 24.9504 76.1736 21.0048 74.316 20.208C72.4584 19.4112 69.4632 19.7064 69.4632 19.7064C69.4632 19.7064 69.4176 18.1536 67.6488 16.4736Z" fill="#333333"/>
</g>
<g opacity="0.08">
<path d="M76.86 14.0304H71.4408V14.616H76.86V14.0304Z" fill="#333333"/>
</g>
<g opacity="0.08">
<path d="M76.86 15.252H71.4408V15.8376H76.86V15.252Z" fill="#333333"/>
</g>
<g opacity="0.08">
<path d="M76.86 16.4736H71.4408V17.0592H76.86V16.4736Z" fill="#333333"/>
</g>
<g opacity="0.58">
<path d="M65.4792 65.484C65.4792 65.484 62.2344 64.5984 61.5288 61.5768C61.5288 61.5768 66.5568 60.5616 66.7008 65.7504L65.4816 65.484H65.4792Z" fill="#1263A7"/>
</g>
<g opacity="0.73">
<path d="M65.8776 65.1624C65.8776 65.1624 63.6096 61.5792 65.6064 58.2264C65.6064 58.2264 69.4296 60.6552 67.7304 65.1696L65.8776 65.1624Z" fill="#1263A7"/>
</g>
<path d="M66.4608 65.1648C66.4608 65.1648 67.6584 61.38 71.28 60.6624C71.28 60.6624 71.9592 63.12 68.9352 65.1744L66.4608 65.1648Z" fill="#1263A7"/>
<path d="M64.1088 65.0784L64.7664 69.5808L68.9088 69.5976L69.5208 65.1024L64.1088 65.0784Z" fill="#24285B"/>
<path d="M43.2792 102.12C43.2792 102.12 44.1336 103.541 45.54 103.385C46.9464 103.226 47.5776 104.508 46.404 105.108C45.2304 105.708 41.1456 104.719 41.1456 104.719V102.197L43.2816 102.122L43.2792 102.12Z" fill="#1263A7"/>
<path d="M24.7176 102.12C24.7176 102.12 23.8632 103.541 22.4568 103.385C21.0504 103.226 20.4192 104.508 21.5928 105.108C22.7664 105.708 27.408 104.561 27.408 104.561L26.8512 102.197L24.7152 102.122L24.7176 102.12Z" fill="#1263A7"/>
<path d="M40.3032 70.8312H19.8936L23.5632 102.158H28.2192C28.2192 102.158 26.568 79.8624 28.8744 76.1952C28.8792 76.1904 28.8816 76.1832 28.8864 76.1784C29.5896 75.072 31.1952 75.012 32.0496 76.008C37.5312 82.3872 39.6504 102.161 39.6504 102.161H44.1648L40.3032 70.8336V70.8312Z" fill="#24285B"/>
<g opacity="0.09">
<path d="M28.2192 48.5712C27.1152 42.3768 35.6568 39.4968 38.508 45.1056C41.9112 51.804 47.8824 60.7848 54.5832 58.452C62.9736 55.5312 65.1072 50.9664 65.6184 49.3008C65.7792 48.78 66.0936 48.3192 66.516 47.976C67.4448 47.2248 69.0504 46.2864 70.2048 47.5608C71.9232 49.4544 68.316 51.432 68.316 51.432C68.316 51.432 62.8512 67.368 49.8456 67.032C41.0616 66.8064 29.7048 56.8992 28.2192 48.5688V48.5712Z" fill="#333333"/>
</g>
<path d="M30.216 38.4144C30.216 38.4144 21.1656 36.9648 17.0736 45.0096C12.9816 53.052 19.896 70.8336 19.896 70.8336H40.3056C40.3056 70.8336 57.4704 40.8528 30.216 38.4168V38.4144Z" fill="#1263A7"/>
<g opacity="0.44">
<path d="M30.7104 86.4936L28.788 86.5728L19.1328 86.9592C19.1328 86.9592 14.6784 60.4896 15.888 54.0096C16.2048 52.3176 16.2744 50.952 16.2552 49.812C16.1976 46.5768 15.396 45.1224 17.2776 43.0368C22.9608 36.7176 30.2184 38.4168 30.2184 38.4168L30.7128 86.4936H30.7104Z" fill="white"/>
</g>
<g opacity="0.08">
<path d="M29.5896 82.632C29.484 82.944 29.2536 83.1984 29.0856 83.4816C28.5048 84.4488 28.6056 85.5168 28.7856 86.5704L19.1304 86.9568C19.1304 86.9568 14.676 60.4872 15.8856 54.0072C16.2024 52.3152 16.272 50.9496 16.2528 49.8096C17.6136 48.9552 19.2336 48.4608 20.7744 48.4824C20.9232 48.4872 21.072 48.4896 21.216 48.5064C24.5232 48.78 24.1344 52.5312 23.5248 55.0488C22.8504 57.8496 21.0816 60.1944 20.376 62.9568C19.596 66 18.7056 71.8152 21.78 73.7352C22.7088 74.3136 23.7576 74.6904 24.6624 75.3024C25.5288 75.888 26.2392 76.6728 26.94 77.448C28.056 78.6888 29.2152 80.0064 29.58 81.6336C29.6496 81.9624 29.6904 82.308 29.5872 82.6272L29.5896 82.632Z" fill="#333333"/>
</g>
<g opacity="0.44">
<path d="M34.9128 39.204L34.3608 85.9704H44.1648C44.1648 85.9704 47.3184 56.1816 45.0744 48.3576C42.8304 40.5336 38.1192 40.512 34.9104 39.204H34.9128Z" fill="white"/>
</g>
<path d="M20.7336 40.8312C17.688 42.5832 12.4272 46.0848 9.3864 50.8056L18.9336 59.736C18.9336 59.736 35.6088 48.1536 25.7736 41.0784C24.2904 40.0128 22.3176 39.9192 20.736 40.8288L20.7336 40.8312Z" fill="#1263A7"/>
<g opacity="0.44">
<path d="M20.5488 40.9392C17.4792 42.7248 12.3672 46.1808 9.3864 50.808L18.9336 59.7384C18.9336 59.7384 35.4168 48.2904 25.9392 41.2032C24.3744 40.032 22.2384 39.9552 20.5488 40.9392Z" fill="white"/>
</g>
<path d="M22.8735 74.3093L12.5725 83.5032L19.0817 90.7961L29.3826 81.6021L22.8735 74.3093Z" fill="#FFD200"/>
<path d="M10.0968 51.4728C10.0968 51.4728 0.299994 62.664 3.22559 67.4376C6.15119 72.2112 16.9032 77.2056 16.9032 77.2056C16.9032 77.2056 17.6232 81.132 19.932 80.8344C20.8392 80.7168 21.0456 79.7808 20.9616 78.684C20.8104 76.7112 19.8096 74.892 18.2736 73.644C14.976 70.9632 8.98079 64.596 18.9312 59.7384L10.0968 51.4728Z" fill="#F4A28C"/>
<path d="M37.08 51.1464C37.0488 51.1464 37.0152 51.1416 36.984 51.1296C36.8448 51.0768 36.7752 50.9208 36.828 50.7816C38.2968 46.9128 37.032 42.204 35.0952 39.7368C33.972 38.3064 32.652 37.6056 31.3752 37.7616C30.3792 37.884 29.5944 38.3208 29.0448 39.0576C27.6672 40.9032 27.9768 44.256 28.284 46.092C28.308 46.2384 28.2096 46.3776 28.0608 46.404C27.9144 46.428 27.7752 46.3296 27.7488 46.1808C27.3576 43.836 27.1872 40.6392 28.6104 38.7336C29.2536 37.872 30.1608 37.3656 31.3104 37.224C32.7816 37.044 34.2768 37.8168 35.5224 39.4032C37.5504 41.988 38.8728 46.92 37.3344 50.9736C37.2936 51.0816 37.1904 51.1488 37.0824 51.1488L37.08 51.1464Z" fill="#24285B"/>
<path d="M34.2288 30.5232L30.216 38.4144L34.2792 42.9096L35.8344 33.8112L34.2288 30.5232Z" fill="#F4A28C"/>
<g opacity="0.31">
<path d="M35.652 35.244C35.652 35.244 34.8504 34.7928 34.4376 33.8592C34.4376 33.8592 34.0056 35.4216 35.2056 37.4904L35.652 35.244Z" fill="#CE8172"/>
</g>
<path d="M38.196 31.0512C38.196 31.0512 37.956 33.7416 37.1952 35.4264C36.888 36.108 36.072 36.4176 35.3928 36.0984C34.5504 35.7048 33.5256 34.9248 33.48 33.468L33.0984 31.0032C33.0984 31.0032 32.9136 29.4504 34.6032 28.6392C36.2952 27.828 38.424 29.4192 38.1936 31.0512H38.196Z" fill="#F4A28C"/>
<path d="M37.956 32.7408L38.5152 33.8976C38.6544 34.1832 38.448 34.5144 38.1312 34.5192L37.08 34.5288L37.9584 32.7408H37.956Z" fill="#F4A28C"/>
<path d="M32.3856 33.708L32.5104 30.036C32.5104 30.036 30.648 29.112 31.6224 28.0056C32.5968 26.8992 33.1272 27.9888 33.5976 26.5248C34.068 25.0632 35.352 25.1208 35.952 26.2032C36.552 27.2832 36.504 26.0112 37.608 26.1696C38.712 26.328 38.8512 26.8848 38.6352 27.696C38.4192 28.5072 40.2 28.1064 40.2888 29.2416C40.3776 30.3744 40.1376 31.3776 37.4568 30.7536C34.776 30.1296 36.012 32.8608 32.3832 33.7056L32.3856 33.708Z" fill="#FFD200"/>
<path d="M34.9632 32.8272C34.9632 32.8272 35.1264 31.8 34.3416 31.7424C33.5592 31.6848 33.3144 33.168 34.3368 33.492L34.9632 32.8272Z" fill="#F4A28C"/>
<path d="M36.9576 53.0616C37.8351 53.0616 38.5464 52.3502 38.5464 51.4728C38.5464 50.5953 37.8351 49.884 36.9576 49.884C36.0801 49.884 35.3688 50.5953 35.3688 51.4728C35.3688 52.3502 36.0801 53.0616 36.9576 53.0616Z" fill="#24285B"/>
<path d="M29.8656 55.0848H29.8584C29.7096 55.0848 29.5872 54.9624 29.5896 54.8136C29.5896 54.6648 29.712 54.5448 29.8608 54.5448C29.928 54.5448 31.4808 54.528 31.6392 53.2344C31.8096 51.8448 30.5592 48.1392 29.256 46.776C28.956 46.464 28.6824 46.3056 28.464 46.3248C27.8112 46.3752 27.2376 46.7712 26.76 47.4984C25.7328 49.0632 25.3992 51.9288 26.0304 53.7552C26.244 54.3768 27.2736 54.4008 27.9552 54.4176C28.056 54.4176 28.1472 54.4224 28.2288 54.4272C28.3776 54.4344 28.4928 54.5616 28.4856 54.7104C28.4784 54.8592 28.3608 54.972 28.2024 54.9672C28.1232 54.9624 28.0368 54.9624 27.9408 54.96C27.1608 54.9408 25.8552 54.9096 25.5192 53.9352C24.8304 51.9408 25.1832 48.9216 26.3088 47.2056C26.8752 46.3416 27.6048 45.852 28.4232 45.7896C28.8168 45.7584 29.2272 45.9672 29.6496 46.4064C31.0656 47.8848 32.364 51.78 32.1792 53.304C32.0064 54.7176 30.5976 55.0896 29.8704 55.0896L29.8656 55.0848Z" fill="#24285B"/>
<path d="M25.0272 75.586L23.5085 76.9372L26.2923 80.0661L27.811 78.7148L25.0272 75.586Z" fill="#24285B"/>
<path d="M107.923 76.8144H85.6536C83.8973 76.8144 82.4736 78.2381 82.4736 79.9944V82.812C82.4736 84.5683 83.8973 85.992 85.6536 85.992H107.923C109.679 85.992 111.103 84.5683 111.103 82.812V79.9944C111.103 78.2381 109.679 76.8144 107.923 76.8144Z" fill="#FFD200"/>
<g opacity="0.1">
<path d="M109.596 85.0344H83.568V104.702H109.596V85.0344Z" fill="#333333"/>
</g>
<path d="M96.6072 30.5352C96.6072 30.5352 96.5856 32.5344 97.0224 33.8304C97.2 34.356 97.7784 34.6416 98.3016 34.4592C98.952 34.2312 99.7632 33.732 99.9048 32.6616L100.368 30.8736C100.368 30.8736 100.618 29.7432 99.432 29.0208C98.2464 28.2984 96.5616 29.3136 96.6096 30.5328L96.6072 30.5352Z" fill="#F4A28C"/>
<path d="M100.658 31.932L101.225 38.46L97.6056 38.5152L98.6208 33.8616L100.658 31.932Z" fill="#F4A28C"/>
<g opacity="0.31">
<path d="M98.592 33.996C98.592 33.996 99.3552 33.8544 99.7632 33.4128C99.7632 33.4128 100.018 34.824 98.3016 35.328L98.592 33.996Z" fill="#CE8172"/>
</g>
<path d="M77.2896 82.08V102.086L79.212 102.756L83.9616 82.4856L77.2896 82.08Z" fill="#F4A28C"/>
<path d="M77.3592 101.645C77.3592 101.645 76.1016 102.982 74.6592 102.785C73.2168 102.588 72.828 104.618 75.1752 104.609C76.0704 104.604 76.7976 104.525 77.3544 104.426C78.0168 104.309 78.6792 104.436 79.3128 104.666C79.5096 104.738 79.7448 104.712 79.9992 104.46C80.7288 103.74 79.26 101.81 79.26 101.81L77.3592 101.645Z" fill="#1263A7"/>
<path d="M97.0176 30.4104C97.4952 30.504 98.1192 30.5208 98.9376 30.4056C98.9376 30.4056 99.3456 32.628 101.107 33.1848C101.107 33.1848 102.778 29.868 100.73 28.584C99.0144 27.5088 97.7376 26.5536 96.324 27.8328C95.4192 28.6512 95.8224 30.1728 97.0176 30.4104Z" fill="#24285B"/>
<path d="M101.87 29.628C102.969 29.628 103.86 28.7372 103.86 27.6384C103.86 26.5396 102.969 25.6488 101.87 25.6488C100.772 25.6488 99.8808 26.5396 99.8808 27.6384C99.8808 28.7372 100.772 29.628 101.87 29.628Z" fill="#24285B"/>
<path d="M98.904 31.572C98.904 31.572 98.9928 30.684 99.7032 30.8208C100.414 30.9576 100.402 31.9992 99.5112 32.4096L98.904 31.572Z" fill="#F4A28C"/>
<path d="M97.3512 39.5544L100.889 38.5368C100.889 38.5368 110.335 39.5544 110.234 47.1312C110.16 52.7448 103.606 73.728 103.606 73.728H89.232V66.3384C89.232 62.844 88.4736 59.3688 86.844 56.28C84.6192 52.0632 83.4552 44.7312 97.3512 39.5568V39.5544Z" fill="#1263A7"/>
<path d="M89.2344 70.2744L103.608 73.728C103.608 73.728 104.306 79.932 99.3048 80.4168C94.3032 80.904 78.9768 79.2 84.9384 98.0544H73.0728C73.0728 98.0544 65.8656 77.796 83.4768 73.728C85.6128 73.236 89.1912 72.8304 89.2272 70.6392L89.2344 70.2744Z" fill="#24285B"/>
<g opacity="0.46">
<path d="M95.5776 40.26C95.5776 40.26 95.1216 38.5344 96.9216 37.644C98.7216 36.7512 102.979 35.6688 103.606 39.1704C103.606 39.1704 99.6528 41.7432 95.5776 40.26Z" fill="white"/>
</g>
<path d="M94.6776 48.5592C95.2536 41.9016 104.671 41.0736 106.493 47.5032C107.453 50.8992 107.95 55.824 106.836 62.7384C104.153 79.404 81.9888 74.3736 81.9888 74.3736L81.5808 72.0072C81.5808 72.0072 91.0368 68.2128 95.5776 63.3456C98.2536 60.4776 94.2096 53.94 94.6776 48.5568V48.5592Z" fill="#F4A28C"/>
<path d="M82.6968 71.7816C82.6968 71.7816 78.9192 71.6208 78.0024 73.356C77.088 75.0864 76.2528 77.0304 78.0312 77.1096C79.7856 77.1864 79.9488 75.084 80.5176 74.7432C81.0864 74.4024 83.4768 74.3856 83.4768 73.1328C83.4768 71.88 82.6968 71.7816 82.6968 71.7816Z" fill="#F4A28C"/>
</svg>
