<svg width="20" height="20" viewBox="0 0 20 20" fill="none" xmlns="http://www.w3.org/2000/svg">
<path d="M9.98718 12.8402L12.6884 15.9113C13.6891 17.0491 14.1895 17.618 14.7133 17.4795C15.237 17.341 15.4167 16.5923 15.7759 15.0948L17.7684 6.78825C18.3217 4.48193 18.5983 3.32878 17.9834 2.76C17.3685 2.19122 16.3027 2.61437 14.1711 3.46068L4.28165 7.38707C2.57679 8.06395 1.72436 8.40242 1.67024 8.984C1.6647 9.0435 1.66461 9.10342 1.66997 9.16292C1.7223 9.74475 2.57369 10.0861 4.27648 10.7686C5.048 11.0778 5.43377 11.2325 5.71035 11.5287C5.74145 11.5619 5.77135 11.5964 5.8 11.632C6.05483 11.9487 6.16359 12.3642 6.38108 13.1953L6.78813 14.7508C6.99977 15.5596 7.10559 15.964 7.38275 16.0192C7.65991 16.0742 7.90123 15.7389 8.38385 15.0682L9.98718 12.8402ZM9.98718 12.8402L9.72235 12.5642C9.42093 12.2501 9.27027 12.0931 9.27027 11.8979C9.27027 11.7027 9.42093 11.5457 9.72235 11.2315L12.6998 8.12841" stroke="white" stroke-width="1.25" stroke-linecap="round" stroke-linejoin="round"/>
</svg>
