<svg width="20" height="20" viewBox="0 0 20 20" fill="none" xmlns="http://www.w3.org/2000/svg">
<path d="M9.99935 18.3332C14.6017 18.3332 18.3327 14.6022 18.3327 9.99984C18.3327 5.39746 14.6017 1.6665 9.99935 1.6665C5.39697 1.6665 1.66602 5.39746 1.66602 9.99984C1.66602 11.1489 1.89857 12.2437 2.3192 13.2396C2.55167 13.7899 2.6679 14.0652 2.68229 14.2732C2.69668 14.4812 2.63547 14.7099 2.51303 15.1675L1.66602 18.3332L4.83166 17.4862C5.28925 17.3638 5.51805 17.3025 5.72603 17.3169C5.93402 17.3313 6.20922 17.4475 6.75964 17.68C7.75556 18.1006 8.85027 18.3332 9.99935 18.3332Z" stroke="white" stroke-width="1.25" stroke-linejoin="round"/>
<path d="M7.15647 10.3145L7.88225 9.41304C8.18814 9.03312 8.56626 8.67946 8.59592 8.17359C8.60334 8.04582 8.51351 7.47218 8.33367 6.32492C8.26302 5.87405 7.84206 5.83337 7.47744 5.83337C7.00229 5.83337 6.76472 5.83337 6.5288 5.94113C6.23062 6.07733 5.9245 6.4603 5.85732 6.78115C5.80417 7.03501 5.84367 7.20993 5.92267 7.55978C6.2582 9.04571 7.04535 10.5132 8.26591 11.7338C9.48651 12.9544 10.954 13.7415 12.4399 14.077C12.7898 14.156 12.9647 14.1955 13.2186 14.1424C13.5394 14.0752 13.9223 13.7691 14.0586 13.4709C14.1663 13.235 14.1663 12.9975 14.1663 12.5223C14.1663 12.1576 14.1257 11.7367 13.6748 11.666C12.5275 11.4862 11.9539 11.3964 11.8261 11.4038C11.3203 11.4335 10.9666 11.8115 10.5867 12.1175L9.68526 12.8432" stroke="white" stroke-width="1.25"/>
</svg>
